<svg width="21" height="20" viewBox="0 0 21 20" fill="none" xmlns="http://www.w3.org/2000/svg">
<g clip-path="url(#clip0_614_387)">
<path d="M18.9707 0H1.92773C1.11133 0 0.451172 0.644531 0.451172 1.44141V18.5547C0.451172 19.3516 1.11133 20 1.92773 20H18.9707C19.7871 20 20.4512 19.3516 20.4512 18.5586V1.44141C20.4512 0.644531 19.7871 0 18.9707 0ZM6.38477 17.043H3.41602V7.49609H6.38477V17.043ZM4.90039 6.19531C3.94727 6.19531 3.17773 5.42578 3.17773 4.47656C3.17773 3.52734 3.94727 2.75781 4.90039 2.75781C5.84961 2.75781 6.61914 3.52734 6.61914 4.47656C6.61914 5.42188 5.84961 6.19531 4.90039 6.19531ZM17.4941 17.043H14.5293V12.4023C14.5293 11.2969 14.5098 9.87109 12.9863 9.87109C11.4434 9.87109 11.209 11.0781 11.209 12.3242V17.043H8.24805V7.49609H11.0918V8.80078H11.1309C11.5254 8.05078 12.4941 7.25781 13.9355 7.25781C16.9395 7.25781 17.4941 9.23438 17.4941 11.8047V17.043Z" fill="#1D2130"/>
</g>
<defs>
<clipPath id="clip0_614_387">
<rect width="20" height="20" fill="white" transform="translate(0.451172)"/>
</clipPath>
</defs>
</svg>
