<svg width="21" height="20" viewBox="0 0 21 20" fill="none" xmlns="http://www.w3.org/2000/svg">
<g clip-path="url(#clip0_614_385)">
<path d="M6.74297 18.1251C14.2883 18.1251 18.4164 11.8724 18.4164 6.45167C18.4164 6.27589 18.4125 6.0962 18.4047 5.92042C19.2077 5.33967 19.9007 4.62033 20.4512 3.7962C19.7033 4.12896 18.9092 4.34627 18.0961 4.44074C18.9522 3.92755 19.5933 3.12135 19.9004 2.17159C19.095 2.64892 18.2142 2.98563 17.2957 3.1673C16.6769 2.50976 15.8587 2.07439 14.9676 1.9285C14.0765 1.78261 13.1622 1.93433 12.366 2.3602C11.5697 2.78607 10.936 3.46238 10.5627 4.28455C10.1894 5.10672 10.0974 6.02897 10.3008 6.9087C8.66992 6.82686 7.07445 6.40321 5.61782 5.6652C4.16119 4.9272 2.87592 3.89132 1.84531 2.62472C1.3215 3.52782 1.16122 4.59649 1.39703 5.61353C1.63284 6.63057 2.24706 7.51966 3.11484 8.10011C2.46336 8.07943 1.82615 7.90402 1.25586 7.58839V7.63917C1.25528 8.58691 1.58292 9.50561 2.1831 10.2391C2.78327 10.9726 3.61894 11.4756 4.54805 11.6626C3.94455 11.8277 3.31116 11.8518 2.69687 11.7329C2.95905 12.548 3.46915 13.2609 4.15598 13.7721C4.84281 14.2833 5.67211 14.5673 6.52813 14.5845C5.07486 15.726 3.27965 16.3452 1.43164 16.3423C1.10391 16.3418 0.776504 16.3217 0.451172 16.2821C2.32855 17.4866 4.51245 18.1263 6.74297 18.1251Z" fill="#1D2130"/>
</g>
<defs>
<clipPath id="clip0_614_385">
<rect width="20" height="20" fill="white" transform="translate(0.451172)"/>
</clipPath>
</defs>
</svg>
